:FULLY-SPECIFIED
:FORCE-ALL-JOINTS-BE-3DOF
:DEGREES
1325
root -1.5382 14.8501 6.94658 -7.06777 26.3232 2.77049
lfemur 1.94222 3.91203 -17.559
ltibia 54.2214 -0 0
lfoot -28.664 26.4378 0.342646
ltoes -17.0304 0 0
rfemur -52.0254 -8.82054 3.3437
rtibia 45.742 -0 0
rfoot 18.4442 8.76217 -0.596023
rtoes 5.45077 -0 0
lowerback 13.2184 0.618189 -11.1518
upperback -1.72731 -0.967434 0.563733
thorax -9.26586 0.142653 7.11442
lowerneck -4.30559 -9.37815 -11.176
upperneck 15.0621 -12.8757 7.72658
head 6.54269 -6.37194 3.35582
lclavicle 5.00565e-14 -1.17283e-14 0
lhumerus -42.4113 -42.3075 117.313
lradius 112.203 -0 0
lwrist 40.7768 0 0
lhand -12.5526 47.0409 -0.0448079
lfingers 7.12502 -0 0
lthumb 13.5255 76.611 -0.0407586
rclavicle 5.00565e-14 -1.17283e-14 0
rhumerus 40.8365 17.3854 -51.5011
rradius 99.5815 -0 0
rwrist -18.1892 0 0
rhand -18.3744 -30.1261 0.186021
rfingers 7.12502 -0 0
rthumb 7.90373 -59.4747 0.175138
1326
root -1.554 14.8248 7.11666 -6.74862 26.603 2.89545
lfemur 2.62454 3.6679 -17.3212
ltibia 53.5664 -0 0
lfoot -28.4935 26.7469 0.359668
ltoes -17.2139 0 0
rfemur -52.3585 -9.21616 3.39625
rtibia 46.4211 -0 0
rfoot 17.763 8.79738 -0.589108
rtoes 5.14165 -0 0
lowerback 13.1786 0.661844 -11.181
upperback -1.76525 -0.916102 0.503933
thorax -9.29588 0.170239 7.05406
lowerneck -4.10544 -9.49222 -11.2055
upperneck 14.7634 -13.0443 7.80859
head 6.44074 -6.45626 3.38726
lclavicle 5.00565e-14 -1.17283e-14 0
lhumerus -43.89 -41.1996 117.221
lradius 111.895 -0 0
lwrist 41.3579 0 0
lhand -12.4578 46.8965 -0.0458898
lfingers 7.12502 -0 0
lthumb 13.6168 76.461 -0.0417618
rclavicle 5.00565e-14 -1.17283e-14 0
rhumerus 42.0184 16.3432 -50.2657
rradius 98.9723 -0 0
rwrist -16.3761 0 0
rhand -19.3291 -30.223 0.199074
rfingers 7.12502 -0 0
rthumb 6.98269 -59.5717 0.187385
1327
root -1.56981 14.7994 7.28675 -6.41183 26.8689 3.0203
lfemur 3.29014 3.42547 -17.0783
ltibia 52.8865 -0 0
lfoot -28.2963 27.0592 0.374079
ltoes -17.3781 0 0
rfemur -52.6663 -9.61124 3.46562
rtibia 47.1188 -0 0
rfoot 17.0451 8.81407 -0.576362
rtoes 4.79959 -0 0
lowerback 13.1322 0.707635 -11.2022
upperback -1.80638 -0.859885 0.44386
thorax -9.32584 0.199813 6.98798
lowerneck -3.90041 -9.6055 -11.2329
upperneck 14.4521 -13.2119 7.8937
head 6.3342 -6.54016 3.41953
lclavicle 5.00565e-14 -1.17283e-14 0
lhumerus -45.3315 -40.0771 117.061
lradius 111.568 -0 0
lwrist 41.9624 0 0
lhand -12.3689 46.7468 -0.0466012
lfingers 7.12502 -0 0
lthumb 13.7026 76.3058 -0.0424301
rclavicle 5.00565e-14 -1.17283e-14 0
rhumerus 43.1768 15.2713 -49.0352
rradius 98.339 -0 0
rwrist -14.5266 0 0
rhand -20.3032 -30.322 0.210832
rfingers 7.12502 -0 0
rthumb 6.04285 -59.6704 0.198412
1328
root -1.58561 14.7741 7.45683 -6.05896 27.1213 3.14503
lfemur 3.93947 3.18488 -16.8312
ltibia 52.1839 -0 0
lfoot -28.0744 27.374 0.38576
ltoes -17.5245 0 0
rfemur -52.9506 -10.0052 3.55057
rtibia 47.8332 -0 0
rfoot 16.2938 8.81348 -0.558523
rtoes 4.4277 -0 0
lowerback 13.0797 0.755358 -11.2159
upperback -1.85042 -0.799197 0.383603
thorax -9.35569 0.231195 6.91665
lowerneck -3.69114 -9.71788 -11.2583
upperneck 14.1294 -13.3782 7.9817
head 6.22353 -6.62352 3.45254
lclavicle 5.00565e-14 -1.17283e-14 0
lhumerus -46.7383 -38.9442 116.839
lradius 111.224 -0 0
lwrist 42.5877 0 0
lhand -12.2854 46.5924 -0.0469618
lfingers 7.12502 -0 0
lthumb 13.7831 76.1459 -0.0427814
rclavicle 5.00565e-14 -1.17283e-14 0
rhumerus 44.3094 14.1719 -47.8131
rradius 97.6843 -0 0
rwrist -12.6457 0 0
rhand -21.294 -30.4227 0.221152
rfingers 7.12502 -0 0
rthumb 5.08689 -59.7705 0.208088
1329
root -1.60142 14.7487 7.62691 -5.69156 27.3605 3.26957
lfemur 4.57298 2.94626 -16.5805
ltibia 51.4607 -0 0
lfoot -27.83 27.6905 0.394615
ltoes -17.6545 0 0
rfemur -53.2132 -10.3976 3.64987
rtibia 48.5621 -0 0
rfoot 15.5127 8.79686 -0.536327
rtoes 4.02907 -0 0
lowerback 13.0217 0.804812 -11.2226
upperback -1.89711 -0.73445 0.323254
thorax -9.38537 0.264201 6.84055
lowerneck -3.47831 -9.82924 -11.2819
upperneck 13.7966 -13.5428 8.07234
head 6.10921 -6.70624 3.48619
lclavicle 5.00565e-14 -1.17283e-14 0
lhumerus -48.1124 -37.8053 116.559
lradius 110.863 -0 0
lwrist 43.2314 0 0
lhand -12.207 46.4341 -0.0469927
lfingers 7.12502 -0 0
lthumb 13.8586 75.9822 -0.0428351
rclavicle 5.00565e-14 -1.17283e-14 0
rhumerus 45.414 13.0473 -46.6025
rradius 97.0107 -0 0
rwrist -10.739 0 0
rhand -22.2987 -30.5247 0.229914
rfingers 7.12502 -0 0
rthumb 4.1175 -59.8717 0.2163
1330
root -1.61722 14.7233 7.797 -5.31122 27.587 3.39386
lfemur 5.19115 2.70976 -16.327
ltibia 50.719 -0 0
lfoot -27.5648 28.0082 0.400575
ltoes -17.7694 0 0
rfemur -53.4556 -10.7879 3.76234
rtibia 49.3034 -0 0
rfoot 14.7051 8.76546 -0.5105
rtoes 3.60681 -0 0
lowerback 12.9586 0.855797 -11.2229
upperback -1.94615 -0.666054 0.262904
thorax -9.41486 0.298651 6.76014
lowerneck -3.26257 -9.93947 -11.3038
upperneck 13.4551 -13.7056 8.16539
head 5.9917 -6.78821 3.52039
lclavicle 5.00565e-14 -1.17283e-14 0
lhumerus -49.4557 -36.6642 116.227
lradius 110.488 -0 0
lwrist 43.8909 0 0
lhand -12.1335 46.2723 -0.0467162
lfingers 7.12502 -0 0
lthumb 13.9295 75.8151 -0.0426115
rclavicle 5.00565e-14 -1.17283e-14 0
rhumerus 46.489 11.9002 -45.4062
rradius 96.3209 -0 0
rwrist -8.81157 0 0
rhand -23.3145 -30.6277 0.237015
rfingers 7.12502 -0 0
rthumb 3.13735 -59.9737 0.222954
1331
root -1.63302 14.698 7.96708 -4.91953 27.8011 3.51779
lfemur 5.79446 2.47555 -16.0714
ltibia 49.9609 -0 0
lfoot -27.2811 28.3262 0.403596
ltoes -17.8706 0 0
rfemur -53.6797 -11.1756 3.88678
rtibia 50.0551 -0 0
rfoot 13.8746 8.72057 -0.481747
rtoes 3.16402 -0 0
lowerback 12.8911 0.908113 -11.2172
upperback -1.99729 -0.594421 0.202646
thorax -9.44409 0.334365 6.6759
lowerneck -3.04459 -10.0485 -11.324
upperneck 13.106 -13.8664 8.26058
head 5.87148 -6.86932 3.55505
lclavicle 5.00565e-14 -1.17283e-14 0
lhumerus -50.7702 -35.525 115.845
lradius 110.101 -0 0
lwrist 44.5636 0 0
lhand -12.0644 46.1078 -0.046155
lfingers 7.12502 -0 0
lthumb 13.996 75.6453 -0.0421312
rclavicle 5.00565e-14 -1.17283e-14 0
rhumerus 47.5327 10.7334 -44.2269
rradius 95.6175 -0 0
rwrist -6.8689 0 0
rhand -24.3388 -30.7315 0.242374
rfingers 7.12502 -0 0
rthumb 2.14914 -60.0762 0.227976
1332
root -1.64883 14.6726 8.13716 -4.51806 28.0032 3.64127
lfemur 6.38337 2.24383 -15.8145
ltibia 49.1886 -0 0
lfoot -26.9808 28.6441 0.403663
ltoes -17.9595 0 0
rfemur -53.887 -11.5603 4.02204
rtibia 50.8151 -0 0
rfoot 13.0245 8.66348 -0.450751
rtoes 2.70381 -0 0
lowerback 12.8195 0.96156 -11.2061
upperback -2.05022 -0.519961 0.142574
thorax -9.47302 0.371161 6.5883
lowerneck -2.82503 -10.1561 -11.3428
upperneck 12.7507 -14.0248 8.35765
head 5.749 -6.94948 3.59007
lclavicle 5.00565e-14 -1.17283e-14 0
lhumerus -52.0572 -34.3912 115.42
lradius 109.704 -0 0
lwrist 45.247 0 0
lhand -11.9995 45.9412 -0.0453323
lfingers 7.12502 -0 0
lthumb 14.0585 75.4734 -0.0414152
rclavicle 5.00565e-14 -1.17283e-14 0
rhumerus 48.5439 9.54988 -43.0669
rradius 94.9031 -0 0
rwrist -4.91624 0 0
rhand -25.3685 -30.8356 0.24593
rfingers 7.12502 -0 0
rthumb 1.15554 -60.1788 0.23131
1333
root -1.66463 14.6473 8.30725 -4.10842 28.1939 3.76418
lfemur 6.9584 2.0148 -15.5571
ltibia 48.4041 -0 0
lfoot -26.6659 28.9609 0.40079
ltoes -18.0375 0 0
rfemur -54.0792 -11.9414 4.16697
rtibia 51.5814 -0 0
rfoot 12.1583 8.5955 -0.418159
rtoes 2.22927 -0 0
lowerback 12.7444 1.01594 -11.1901
upperback -2.10468 -0.443082 0.082781
thorax -9.50159 0.408862 6.49781
lowerneck -2.60456 -10.2623 -11.3601
upperneck 12.3905 -14.1807 8.45631
head 5.62474 -7.02857 3.62536
lclavicle 5.00565e-14 -1.17283e-14 0
lhumerus -53.3182 -33.2663 114.956
lradius 109.298 -0 0
lwrist 45.9387 0 0
lhand -11.9383 45.773 -0.0442712
lfingers 7.12502 -0 0
lthumb 14.1174 75.3001 -0.0404846
rclavicle 5.00565e-14 -1.17283e-14 0
rhumerus 49.5216 8.35278 -41.9284
rradius 94.1803 -0 0
rwrist -2.95893 0 0
rhand -26.4011 -30.9397 0.247645
rfingers 7.12502 -0 0
rthumb 0.159229 -60.2813 0.232922
1334
root -1.68044 14.6219 8.47733 -3.69221 28.3734 3.88639
lfemur 7.52003 1.78867 -15.2998
ltibia 47.6096 -0 0
lfoot -26.3384 29.2762 0.395024
ltoes -18.1059 0 0
rfemur -54.258 -12.3186 4.32045
rtibia 52.3519 -0 0
rfoot 11.2795 8.51796 -0.38458
rtoes 1.7435 -0 0
lowerback 12.6663 1.07105 -11.1696
upperback -2.16038 -0.364193 0.0233644
thorax -9.52977 0.447288 6.40491
lowerneck -2.38384 -10.3668 -11.376
upperneck 12.0267 -14.3339 8.55627
head 5.49918 -7.10651 3.66081
lclavicle 5.00565e-14 -1.17283e-14 0
lhumerus -54.554 -32.1539 114.457
lradius 108.885 -0 0
lwrist 46.636 0 0
lhand -11.8807 45.6039 -0.0429946
lfingers 7.12502 -0 0
lthumb 14.1729 75.1259 -0.0393598
rclavicle 5.00565e-14 -1.17283e-14 0
rhumerus 50.4648 7.14536 -40.8133
rradius 93.4517 -0 0
rwrist -1.00227 0 0
rhand -27.4337 -31.0435 0.247502
rfingers 7.12502 -0 0
rthumb -0.837098 -60.3832 0.232797
1335
root -1.69624 14.5966 8.64742 -3.27103 28.5424 4.00776
lfemur 8.06876 1.56567 -15.0436
ltibia 46.8072 -0 0
lfoot -26.0004 29.5891 0.386438
ltoes -18.166 0 0
rfemur -54.425 -12.6914 4.48137
rtibia 53.1244 -0 0
rfoot 10.3914 8.43219 -0.350582
rtoes 1.24962 -0 0
lowerback 12.5857 1.12669 -11.1453
upperback -2.21704 -0.283702 -0.0355788
thorax -9.5575 0.486261 6.31006
lowerneck -2.16354 -10.4697 -11.3908
upperneck 11.6605 -14.4841 8.65722
head 5.37277 -7.18318 3.69632
lclavicle 5.00565e-14 -1.17283e-14 0
lhumerus -55.7655 -31.0571 113.927
lradius 108.467 -0 0
lwrist 47.3364 0 0
lhand -11.8262 45.4345 -0.0415249
lfingers 7.12502 -0 0
lthumb 14.2254 74.9515 -0.0380609
rclavicle 5.00565e-14 -1.17283e-14 0
rhumerus 51.3732 5.931 -39.7235
rradius 92.7199 -0 0
rwrist 0.948408 0 0
rhand -28.4636 -31.1466 0.245507
rfingers 7.12502 -0 0
rthumb -1.83076 -60.4844 0.23094
1336
root -1.71205 14.5712 8.8175 -2.84648 28.7011 4.12815
lfemur 8.60511 1.34604 -14.789
ltibia 45.9989 -0 0
lfoot -25.6538 29.8989 0.375141
ltoes -18.2238 0 0
rfemur -54.5818 -13.0594 4.64864
rtibia 53.897 -0 0
rfoot 9.49747 8.33957 -0.316682
rtoes 0.750725 -0 0
lowerback 12.5031 1.18265 -11.1175
upperback -2.27437 -0.202016 -0.0939496
thorax -9.58473 0.525605 6.21375
lowerneck -1.94431 -10.5708 -11.4044
upperneck 11.2933 -14.6312 8.75886
head 5.24601 -7.25849 3.7318
lclavicle 5.00565e-14 -1.17283e-14 0
lhumerus -56.9533 -29.9789 113.371
lradius 108.046 -0 0
lwrist 48.0374 0 0
lhand -11.7745 45.2655 -0.0398837
lfingers 7.12502 -0 0
lthumb 14.2751 74.7776 -0.0366071
rclavicle 5.00565e-14 -1.17283e-14 0
rhumerus 52.2462 4.71319 -38.6607
rradius 91.9876 -0 0
rwrist 2.8878 0 0
rhand -29.4879 -31.2486 0.241687
rfingers 7.12502 -0 0
rthumb -2.81909 -60.5845 0.227378
1337
root -1.72785 14.5459 8.98758 -2.42017 28.8501 4.24741
lfemur 9.1296 1.13002 -14.5369
ltibia 45.187 -0 0
lfoot -25.3007 30.2051 0.36127
ltoes -18.2673 0 0
rfemur -54.7299 -13.4221 4.82118
rtibia 54.6676 -0 0
rfoot 8.60124 8.24147 -0.283347
rtoes 0.249913 -0 0
lowerback 12.419 1.23874 -11.0869
upperback -2.3321 -0.119539 -0.151648
thorax -9.6114 0.565144 6.11643
lowerneck -1.72683 -10.67 -11.4169
upperneck 10.9264 -14.775 8.86085
head 5.11935 -7.33233 3.76712
lclavicle 5.00565e-14 -1.17283e-14 0
lhumerus -58.1176 -28.9224 112.793
lradius 107.624 -0 0
lwrist 48.7365 0 0
lhand -11.7253 45.0975 -0.0380919
lfingers 7.12502 -0 0
lthumb 14.3225 74.6046 -0.0350168
rclavicle 5.00565e-14 -1.17283e-14 0
rhumerus 53.0836 3.49547 -37.6264
rradius 91.2574 -0 0
rwrist 4.81058 0 0
rhand -30.5038 -31.3493 0.236091
rfingers 7.12502 -0 0
rthumb -3.79938 -60.6831 0.222155
